<?xml version="1.0" encoding="UTF-8"?> <!-- Generator: Adobe Illustrator 16.0.0, SVG Export Plug-In . SVG Version: 6.00 Build 0) --> <svg xmlns="http://www.w3.org/2000/svg" xmlns:xlink="http://www.w3.org/1999/xlink" version="1.1" id="Ebene_1" x="0px" y="0px" width="500px" height="500px" viewBox="0 0 500 500" xml:space="preserve"> <g> <g id="Farbe"> <g id="Gesicht"> <path fill="#EFCAA6" d="M158.598,262.448c-1.045-6.255,6.874-24.396,17.429-27.941c8.644-2.902,18.435,6.843,27.297,7.884 c16.156,2.086,32.312,8.599,49.513,6.515c7.815-1.042,17.925-4.09,25.224-7.739c5.211-2.605,5.474-4.243,11.199-2.679 c5.736,1.042,7.357,5.47,11.529,9.117c7.818,6.254,19.8,11.469,22.408,22.415c2.609,8.343-3.646,14.599-7.301,21.894 c-2.082,0,0.392,2.187-1.69,1.146c2.082,1.041-1.437,1.467,0.128,2.508c1.045,1.041,1.045,1.041,2.093,2.086 c3.644,5.213,9.897,9.9,10.944,17.197c1.563,13.553-3.786,21.967-11.104,23.2c-9.644-4.971-6.271,34.203-11.729,49.234 c-4.235,28.341-38.684,78.72-39.204,78.72l0,0c-11.465,11.987-32.854,33.604-53.182,29.954 c-18.245-3.128-29.691-29.432-35.422-46.109c-3.652-9.382-7.06-17.545-9.143-27.969c-2.083-9.901-2.847-21.024-4.41-31.45 c-1.045-9.382-0.519-19.283,0-29.187c0.519-10.425,4.69-18.242,6.774-27.104c-8.338-1.041-16.956,4.021-25.819,1.938 c-8.862-2.086-15.96-6.579-17.005-17.006c-2.082-20.853,27.712-25.587,41.785-31.841c-1.563-7.297-10.946-6.256-10.946-15.639 c0-3.648,1.564-6.777,3.647-9.902"></path> </g> <g id="Hut"> <path fill="#FFFFFF" d="M216.229,62.435c-18.764,17.199-49.773,18.241-64.629-2.086C137.528,32.984,194.877,0.746,218.722,7.56 c6.934,1.979,17.836,5.619,23.309,9.528c9.382,7.037,7.818,9.382,20.326,6.255c14.854-3.127,28.146-8.601,43-11.728 c25.801-6.254,58.638-3.909,80.526,12.51c9.382,7.037,20.328,29.709,17.201,42.219c-3.128,12.509-20.329,21.891-31.272,25.019 c-12.511,3.127-31.271,0.782-40.654,7.818c-11.729,9.381-14.071,30.491-17.982,43.782c-7.816,28.927-22.451,56.31-22.8,85.742 c-0.323,27.689-42.872,24.498-64.763,20.587c-12.509-2.346-31.28-7.036-43.007-12.51c-15.637-7.036-7.03-22.673-4.686-37.527 c7.818-43.783,22.674-86.783,26.583-130.565"></path> </g> <g id="Augen"> <path fill="#FFFFFF" d="M171.571,288.518c-4.301-3.127-10.945-6.645-16.027-10.162c-3.128-6.646,3.128-14.071,9.382-17.199 c3.908-1.563,6.646-1.954,10.945-0.78c5.473,1.563,5.473,2.733,10.555,1.563c7.036-1.955,9.729-8.52,17.982-6.744 c15.93,3.422,15.636,12.219,12.509,18.863c-3.519,7.428-23.846,15.242-30.491,8.6c-5.082,3.908-9.772,6.256-16.419,5.863h1.564 V288.518L171.571,288.518z"></path> </g> </g> <g> <path fill="none" d="M286.143,284.707c0.075-0.229,0.154-0.452,0.225-0.682c0.007-0.024-0.231-0.123-0.354-0.188 C286.053,284.126,286.1,284.416,286.143,284.707z"></path> <path fill="none" d="M289.998,243.628c0.758,2.05,1.186,3.823,3.27,4.697C292.313,246.835,293.334,244.279,289.998,243.628z"></path> <path d="M277.025,313.104c1.74-1.477,3.384-3.113,4.808-4.894c0.629-0.788,1.021-2.142-0.532-3.033 c-0.636,0.195-1.398,0.349-2.089,0.654c-7.03,3.114-13.997,6.331-21.045,9.367c-6.196,2.659-12.509,4.938-19.179,6.129 c-5.53,0.989-10.723,0.461-15.338-3.104c-0.595-0.463-1.331-0.744-2.207-1.223c-0.95,0.545-1.859,1.393-2.887,1.578 c-1.255,0.221-2.613-0.171-3.927-0.188c-1.173-0.021-2.038,1.344-1.662,2.479c0.792,2.438,2.483,3.324,4.894,2.485 c0.888-0.312,1.713-0.815,2.158-1.036c4.648,2.093,8.979,4.043,13.664,6.15c-2.144,1.492-3.995,2.771-5.821,4.066 c-0.626,0.44-1.16,1.227-1.832,1.354c-2.498,0.485-3.835,2.313-5.375,4.041c-3.213,3.618-7.012,6.546-11.092,9.146 c-3.214,2.044-6.529,2.104-9.962,0.993c-2.462-0.803-4.383-2.387-5.645-4.678c-1.2-2.157-3.161-3.314-5.396-4.048 c-0.425-0.137-1.182,0.13-1.499,0.477c-0.31,0.349-0.52,1.145-0.327,1.539c0.653,1.383,1.401,2.739,2.281,3.986 c1.589,2.26,2.602,4.764,2.919,7.447c0.568,4.773,1.009,9.563,1.332,14.355c0.227,3.452,0.079,6.932,0.274,10.386 c0.465,8.255,2.584,15.978,8.167,22.331c1.619,1.854,3.519,3.612,5.625,4.854c4.85,2.861,10.048,1.737,13.17-2.916 c1.575-2.353,2.821-5.088,3.511-7.827c0.941-3.704,1.467-7.563,1.712-11.39c0.421-6.705,0.843-13.442,0.629-20.148 c-0.281-8.714,2.345-16.687,5.111-24.688c0.575-1.654,1.405-3.094,2.969-4.105c0.935-0.604,1.789-1.508,2.347-2.473 c0.524-0.923,0.616-2.096,0.878-3.071c3.048-0.688,5.895-1.171,8.649-1.977c9.254-2.709,18.024-6.655,26.74-10.717 C274.436,314.771,275.87,314.08,277.025,313.104z"></path> <path d="M136.7,296.118c-5.83,3.69-10.423,8.491-12.052,15.506c-1.154,5.019-0.371,9.858,1.012,14.765 c1.687,5.955,5.788,9.5,11.132,11.533c5.589,2.126,11.495,2.905,17.579,2.444c8.114-0.62,15.898-2.486,23.531-5.244 c5.447-1.974,10.6-4.545,15.536-7.515c4.113-2.479,7.925-5.42,11.016-9.207c2.119-2.598,3.582-5.479,4.312-8.709 c0.827-3.684-1.081-7.002-4.599-8.234c-1.457-0.507-3.244,0.723-3.256,2.333c-0.009,0.74,0.152,1.533,0.452,2.21 c0.437,0.998,1.06,1.921,1.48,2.671c-3.097,5.787-5.094,8.218-10.627,11.604c-4.087,2.505-8.387,4.729-12.748,6.699 c-9.242,4.174-19.015,6.088-29.142,6.224c-3.881,0.052-7.646-0.755-11.366-1.737c-2.456-0.65-4.746-1.775-6.134-4.031 c-3.078-4.979-4.159-10.287-2.229-15.97c0.305-0.896,0.702-1.833,1.301-2.541c1.991-2.327,4.05-4.581,6.743-6.222 c10.958-6.676,22.869-9.887,35.635-10.029c2.095-0.023,4.189,0.484,6.3,0.6c2.079,0.112,3.43-2.248,2.409-4.08 c-0.684-1.227-1.637-2.021-3.096-2.322c-1.038-0.212-1.974-0.854-2.798-1.229c0.409-2.469,0.788-4.512,1.068-6.563 c0.287-2.097-0.534-3.632-2.284-4.899c-5.382-3.921-11.629-3.216-15.893,1.952c-0.584,0.708-1.051,1.519-1.536,2.233 c-3.396-1.428-3.652-1.729-3.063-3.981c0.391-1.483,0.84-2.974,1.46-4.373c2.218-5.015,6.523-7.266,11.498-8.784 c4.19-1.283,7.521,0.146,10.684,2.648c0.903,0.716,1.74,1.566,2.748,2.081c2.27,1.142,3.775,0.5,4.178-1.336 c0.339-1.523,1.14-2.239,2.492-2.824c1.931-0.849,3.681-2.112,5.619-2.917c8.896-3.682,16.388-2.171,22.053,5.361 c1.781,2.377,2.05,4.828,0.646,7.552c-1.465,2.854-3.371,5.127-7.128,6.251c-0.604-0.785-1.093-1.35-1.514-1.964 c-0.746-1.117-1.326-2.366-2.182-3.396c-3.493-4.184-9.849-4.643-12.188,0.01c-0.418,0.838-1.386,1.396-1.789,2.24 c-0.56,1.166-1.203,2.492-1.139,3.723c0.146,2.97,1.389,5.563,3.646,7.604c1.757,1.6,3.833,2.176,5.812,0.866 c2.376-1.571,4.979-1.78,7.627-2.26c7.146-1.3,12.245-5.362,15-12.099c1.653-4.05,1.162-7.969-1.832-11.31 c-1.667-1.854-3.555-3.506-5.308-5.293c-1.82-1.872-4.114-2.952-6.554-3.444c-9.189-1.854-17.668-0.996-24.032,6.98 c-0.23,0.285-0.583,0.468-1.16,0.917c-1.524-0.88-3.17-1.82-4.807-2.775c-3.474-2.019-7.214-2.776-11.118-1.965 c-7.876,1.64-13.77,5.742-16.18,13.819c-0.442,1.476-0.796,2.979-1.065,4.496c-0.787,4.438,0.684,7.266,4.771,9.412 c1.479,0.779,2.92,1.637,4.667,2.608c-1.863,1.744-3.794,1.863-5.607,2.293C148.251,290.023,142.24,292.604,136.7,296.118z"></path> <path d="M99.453,355.841c6.065,2.125,12.406,2.509,18.74,2.382c13.077-0.257,26.026-1.734,38.718-4.976 c4.068-1.037,8.057-2.442,12.027-3.823c2.437-0.846,4.319-2.561,5.497-4.84c0.59-1.131,0.916-2.575-0.91-3.629 c-0.55,0.263-1.307,0.461-1.851,0.916c-2.87,2.438-6.37,3.479-9.871,4.486c-14.051,4.041-28.433,6.136-43.03,6.465 c-5.698,0.132-11.514,0.607-17.103-1.205c-3.054-0.993-6.072-2.104-9.864-3.424C92.967,352.723,95.94,354.609,99.453,355.841z"></path> <path d="M199.564,131.33c-1.35,4.199-2.798,8.385-3.817,12.673c-2.309,9.7-3.952,19.586-6.67,29.166 c-3.384,11.899-5.226,23.983-6.329,36.242c-0.165,1.851-0.577,3.68-0.892,5.516c0.422,0.034,0.844,0.071,1.262,0.104 c1.45-3.067,2.449-6.285,3.167-9.632c2.192-10.311,3.897-20.707,6.548-30.953c3.609-13.926,6.157-28.127,9.131-42.218 c0.142-0.688,0.02-1.436,0.02-2.04C200.486,129.604,199.846,130.456,199.564,131.33z"></path> <path d="M180.397,222.269c-0.801,0.956-0.22,1.826,0.379,2.548c0.592,0.729,1.38,1.306,2.088,1.957 c7.281,6.819,16.834,8.905,25.765,12.286c0.537,0.206,1.722-0.638,2.234-1.285c0.257-0.325-0.104-1.613-0.562-1.939 c-1.374-0.994-2.938-1.726-4.825-2.779c0.079-4.969,0.116-9.539,1.252-14.048c0.837-3.345,1.479-6.738,2.163-10.122 c0.144-0.736,0.231-1.542,0.066-2.257c-0.115-0.455-0.653-0.999-1.108-1.137c-0.448-0.13-1.334,0.046-1.5,0.363 c-0.88,1.668-1.838,3.36-2.305,5.165c-1.503,5.75-2.804,11.55-3.208,17.518c-0.076,0.979-0.742,1.917-1.209,3.087 c-3.173-1.436-6.056-2.516-8.71-4.004c-2.333-1.304-4.403-3.066-6.581-4.63c-0.458-0.336-0.903-0.717-1.381-1.016 C182.04,221.411,181.13,221.396,180.397,222.269z"></path> <path d="M200.66,184.882c-0.873,1.9-1.848,3.812-2.321,5.826c-1.441,5.95-2.748,11.933-3.967,17.93 c-0.836,4.12-1.423,8.292-2.101,12.33c0.14,1.093,0.079,2.113,0.439,2.953c0.244,0.578,1.065,1.234,1.644,1.24 c0.604,0.006,1.551-0.596,1.758-1.148c0.386-1.042,0.349-2.242,0.489-3.375c0.514-4.175,0.795-8.398,1.595-12.516 c1.172-6.001,2.735-11.929,4.092-17.896c0.346-1.488,0.575-3.011,0.69-4.526c0.04-0.407-0.467-1.087-0.864-1.225 C201.699,184.334,200.813,184.563,200.66,184.882z"></path> <path d="M251.316,357.984c0.955-0.784,2.412-1.271,2.468-2.771c-0.339-0.354-0.537-0.729-0.851-0.854 c-0.322-0.137-0.851-0.19-1.104-0.019c-4.715,3.234-8.565,7.204-9.866,12.976c-1.766,7.832-0.226,15.281,3.158,22.41 c1.103,2.303,2.84,4.123,5.229,5.172c0.391,0.172,0.979-0.119,2.019-0.283c-1.405-1.586-2.852-2.668-3.562-4.115 c-3.717-7.6-5.711-15.469-3.033-23.916C246.84,363.197,248.532,360.273,251.316,357.984z"></path> <path d="M176.939,340.818c0.147,1.041,0.844,1.609,1.845,1.759c1.158,0.167,1.952-0.742,1.888-2.312 c-0.079-0.99-0.329-2.063-1.759-2.215C177.753,337.936,176.739,339.354,176.939,340.818z"></path> <path fill="none" d="M286.143,284.707c0.075-0.229,0.154-0.452,0.225-0.682c0.007-0.024-0.231-0.123-0.354-0.188 C286.053,284.126,286.1,284.416,286.143,284.707z"></path> <path fill="none" d="M293.268,248.326c-0.953-1.491,0.066-4.046-3.27-4.697C290.756,245.678,291.184,247.452,293.268,248.326z"></path> <path d="M198.532,464.031c7.043-1.029,7.036-1.025,13.188,2.441c0.662,0.369,1.343,0.835,2.058,0.938 c0.666,0.092,1.631-0.017,2.04-0.445c0.715-0.752,0.544-1.826-0.22-2.555c-2.828-2.726-6.182-4.543-10.079-5.05 C202.353,458.95,200.071,460.348,198.532,464.031z"></path> <path fill="none" d="M286.143,284.707c0.075-0.229,0.154-0.452,0.225-0.682c0.007-0.024-0.231-0.123-0.354-0.188 C286.053,284.126,286.1,284.416,286.143,284.707z"></path> <path fill="none" d="M293.268,248.326c-0.953-1.491,0.066-4.046-3.27-4.697C290.756,245.678,291.184,247.452,293.268,248.326z"></path> <path fill="none" d="M293.268,248.326c-0.953-1.491,0.066-4.046-3.27-4.697C290.756,245.678,291.184,247.452,293.268,248.326z"></path> <path fill="none" d="M286.143,284.707c0.075-0.229,0.154-0.452,0.225-0.682c0.007-0.024-0.231-0.123-0.354-0.188 C286.053,284.126,286.1,284.416,286.143,284.707z"></path> <path fill="none" d="M293.268,248.326c-0.953-1.491,0.066-4.046-3.27-4.697C290.756,245.678,291.184,247.452,293.268,248.326z"></path> <path fill="none" d="M286.143,284.707c0.075-0.229,0.154-0.452,0.225-0.682c0.007-0.024-0.231-0.123-0.354-0.188 C286.053,284.126,286.1,284.416,286.143,284.707z"></path> <path fill="none" d="M293.268,248.326c-0.953-1.491,0.066-4.046-3.27-4.697C290.756,245.678,291.184,247.452,293.268,248.326z"></path> <path fill="none" d="M286.143,284.707c0.075-0.229,0.154-0.452,0.225-0.682c0.007-0.024-0.231-0.123-0.354-0.188 C286.053,284.126,286.1,284.416,286.143,284.707z"></path> <path fill="none" d="M286.143,284.707c0.075-0.229,0.154-0.452,0.225-0.682c0.007-0.024-0.231-0.123-0.354-0.188 C286.053,284.126,286.1,284.416,286.143,284.707z"></path> <path fill="none" d="M293.268,248.326c-0.953-1.491,0.066-4.046-3.27-4.697C290.756,245.678,291.184,247.452,293.268,248.326z"></path> <path fill="none" d="M296.688,249.009c-0.951-1.49,0.067-4.046-3.268-4.696C294.177,246.362,294.604,248.136,296.688,249.009z"></path> <path fill="none" d="M289.563,285.391c0.076-0.227,0.156-0.451,0.226-0.682c0.006-0.023-0.229-0.122-0.354-0.186 C289.475,284.811,289.52,285.1,289.563,285.391z"></path> <path d="M118.864,252.918c1.088,0.247,2.303,0.014,3.451-0.117c4.575-0.516,9.156-1.096,13.747-1.605 c0.857-0.092,1.851-0.616,2.663,0.666c-1.313,1.975-2.859,3.9-3.965,6.061c-1.103,2.154-1.75,4.542-2.666,7.021 c3.705,1.442,5.949-1.76,8.863-1.987c1.105,0.632,2.211,1.264,3.457,1.981c3.854-3.562,7.507-6.93,11.294-10.43 c0.952,0.903,1.881,1.787,3.011,2.862c1.18-0.779,2.397-1.362,3.332-2.246c3.787-3.554,7.442-7.244,11.235-10.788 c2.242-2.088,4.511-4.101,5.317-7.41c2.07,1.018,3.814,1.818,5.513,2.712c7.5,3.967,15.265,7.202,23.467,9.517 c8.899,2.512,17.934,4.344,27.027,5.821c6.078,0.983,12.308,1.236,18.416,0.215c8.162-1.367,16.192-3.328,24.013-6.063 c1.618-0.565,12.962-5.497,13.798-8.667c3.68-2.455-3.093-5.868-6.816-8.724c-0.271-0.201-2.359,6.875-3.529,7.408 c-1.795,0.785-3.563,1.539-5.318,2.324c-5.846,2.608-12.186,3.454-18.27,5.226c-8.308,2.418-16.724,2.317-25.186,1.315 c-12.473-1.475-24.5-4.919-36.343-8.914c-5.79-1.952-11.297-4.75-17.243-7.297c0.122-2.244,0.11-4.339,0.366-6.401 c1.408-11.453,3.088-22.856,5.409-34.168c3.051-14.876,5.613-29.859,8.927-44.677c4.358-19.5,9.227-38.893,13.924-58.322 c0.724-2.981,1.701-5.9,2.525-8.854c0.359-1.298,0.837-2.604,0.91-3.924c0.086-1.478-0.221-2.98-0.366-4.581 c1.153-1.022,2.263-2.079,3.456-3.035c0.409-0.33,1.015-0.421,1.869-0.754c0.495,1.066,1.021,2.037,1.405,3.063 c1.924,5.187,5.223,9.361,9.309,13.004c4.66,4.159,10.06,7.095,15.819,9.327c11.528,4.468,23.382,7.531,35.766,8.573 c7.317,0.613,14.573,0.703,21.844-0.455c4.41-0.702,8.597-2.092,12.558-4.126c2.502-1.285,4.316-3.179,4.65-6.169 c0.207-1.823-1.145-2.913-2.92-2.22c-2.854,1.118-5.613,2.55-8.551,3.372c-9.396,2.639-19.046,2.895-28.647,1.854 c-12.473-1.353-24.655-4.239-36.268-9.092c-9.872-4.129-17.354-10.616-19.576-21.745c-0.264-1.313-0.618-2.62-1.064-3.884 c-0.299-0.849-0.818-1.625-1.398-2.728c-1.362,0.858-2.516,1.487-3.567,2.266c-4.946,3.666-9.955,7.239-15.654,9.685 c-10.829,4.651-21.732,4.413-32.55,0.062c-11.098-4.459-15.966-17.036-9.901-27.718c2.224-3.913,5.162-7.147,8.332-10.268 c11.113-10.958,24.27-18.125,39.563-21.265c4.715-0.975,9.555-1.561,14.289-0.092c3.851,1.194,7.675,2.452,11.138,4.669 c2.416,1.548,5.029,2.843,7.689,3.946c5.729,2.383,10.084,6.212,13.198,11.56c0.535,0.921,1.503,1.591,2.404,2.513 c2.742-1.396,5.287-2.708,7.838-3.973c2.755-1.368,5.475-2.821,8.309-4.006c10.146-4.245,20.771-6.943,31.45-9.413 c6.192-1.433,12.473-2.279,18.858-2.339c9.438-0.092,18.869-0.028,28.215,1.386c6.076,0.919,12.19,1.89,18.099,3.516 c12.778,3.518,23.806,9.772,30.883,21.594c2.505,4.181,4.398,8.518,4.538,13.48c0.03,1.344-0.02,2.749,0.36,4.008 c1.011,3.374,0.223,6.525-1.093,9.537c-1.233,2.81-2.666,5.568-4.323,8.146c-3.082,4.816-7.618,8.068-12.589,10.747 c-0.651,0.351-1.445,0.531-2.188,0.607c-3.827,0.389-7.66,1.014-11.484,0.987c-4.945-0.039-10.102,0.064-13.619-4.544 c-0.605-0.797-1.547-1.173-2.535-0.538c-1.191,0.751-1.479,2.291-0.627,3.534c1.308,1.894,2.709,3.722,4.02,5.622 c0.391,0.568,0.58,1.276,0.818,1.832c-0.537,0.458-0.788,0.864-1.104,0.911c-6.566,1.022-13.041,0.723-19.318-1.625 c-4.051-1.518-7.578-3.723-9.703-7.718c-0.536-0.999-1.324-1.887-2.106-2.718c-0.763-0.803-2.608-0.321-2.883,0.717 c-0.188,0.73-0.372,1.509-0.329,2.257c0.167,3.241,1.725,5.87,3.891,8.151c1.31,1.374,2.763,2.617,4.287,4.047 c-2.928,1.826-4.428,4.55-5.601,7.394c-3.44,8.334-7.159,16.602-10.005,25.144c-6.071,18.233-11.453,36.694-17.52,54.927 c-5.418,16.253-9.053,32.977-13.871,49.383c-0.842,2.866-0.25,4.23,2.354,5.708c0.971,0.54,1.941,1.054,3.292,1.776 c-1.411,1.005-2.438,1.735-3.665,2.605c0.171,2.303,0.158,4.621,0.557,6.866c0.938,5.419-0.271,10.343-3.164,14.871 c-1.655,2.588-3.604,4.99-5.41,7.475c-1.475,2.014-3.019,3.979-4.355,6.076c-0.286,0.452-0.05,1.563,0.35,2.03 c0.416,0.483,1.375,0.856,1.991,0.74c0.894-0.173,1.861-0.66,2.505-1.313c2.426-2.455,4.76-4.994,7.049-7.578 c1.117-1.26,2.072-2.676,3.701-4.83c-0.176,4.694-1.596,7.978-2.947,11.271c-1.356,3.299-4.049,5.999-4.726,9.666 c2.314,1.434,3.927,0.521,5.5-0.732c0.808-0.638,1.468-1.752,2.732-1.137c-0.777,3.524-4.276,6.243-3.42,10.325 c3.543,0.447,4.967-2.669,7.722-4.007c0.045,3.727-1.503,6.476-2.277,9.403c-0.443,1.668-1.109,3.286-1.437,4.972 c-0.116,0.564,0.385,1.398,0.846,1.855c0.218,0.226,1.173,0.043,1.536-0.261c1.971-1.594,3.616-3.473,4.387-5.949 c1.377-4.4,2.68-8.825,4.074-13.21c0.372-1.16,0.135-2.775,1.855-3.16c1.183,0.438,1.271,1.479,1.183,2.393 c-0.426,3.811-0.692,7.665-1.5,11.398c-1.385,6.394-3.326,12.636-5.885,18.677c-0.423,0.996-0.642,2.287-0.388,3.295 c0.304,1.174,0.326,2.201,0.047,3.338c-0.273,1.117-0.536,2.504,0.892,2.897c0.756,0.207,1.847-0.28,2.615-0.735 c0.801-0.479,1.485-1.217,2.063-1.978c2.452-3.246,4.479-6.785,5.511-10.713c0.711-2.723,1.647-5.499,0.481-8.476 c-0.442-1.117,0.022-2.629,0.21-3.939c0.352-2.468,0.986-4.905,1.173-7.382c0.205-2.871,0-5.773,0.07-8.658 c0.032-1.32-0.036-2.81,0.53-3.928c2.396-4.724,5.656-8.642,11.043-10.539c0.563,0.626,1.224,1.098,1.547,1.737 c1.301,2.646,0.951,5.339-0.494,7.728c-1.796,2.944-3.887,5.721-5.93,8.506c-1.48,2.014-3.153,3.875-4.627,5.889 c-0.887,1.197-0.629,2.671,0.478,3.645c0.573,0.508,1.187,1.029,1.875,1.332c5.204,2.301,8.256,6.694,11.325,11.188 c3.061,4.484,3.097,9.104,0.859,13.674c-1.326,2.716-3.377,5.131-5.355,7.468c-1.648,1.954-3.98,2.256-6.348,1.354 c-1.063-0.403-1.975-1.187-3.006-1.688c-1.063-0.519-2.175-0.734-3.615,0.676c-0.231,2.94-0.652,6.36-0.738,9.791 c-0.346,14.491-0.973,24.479-6.443,47.149c-8.129,33.675-30.783,68.313-33.942,72.282c-2.851,4.68-3.615,14.382-2.568,13.146 c7.408-8.729,41.531-59.824,45.505-96.569c2.143-19.797,2.284-19.926,3.194-28.523c0.315-3.021,0.188-6.097,0.817-8.727 c0.537-0.409,0.67-0.596,0.836-0.618c0.567-0.094,1.153-0.229,1.709-0.162c4.521,0.543,7.783-1.655,10.58-4.797 c3.78-4.264,6.114-9.304,7.441-14.798c0.499-2.075,0.257-4.146-0.57-6.215c-1.576-3.979-3.588-7.646-6.504-10.808 c-2.451-2.66-4.863-5.344-7.41-8.146c0.916-1.324,1.683-2.4,2.42-3.486c1.839-2.7,3.729-5.371,5.49-8.117 c2.98-4.648,2.762-9.455,0.435-14.281c-0.468-0.992-1.101-1.908-1.83-3.164c1.896-0.82,3.741-1.133,4.83-2.223 c1.5-1.484,2.997-1.506,4.756-1.273c4.401,0.584,8.817,0.563,13.229,0.188c1.336-0.112,2.7-0.303,3.963-0.697 c1.832-0.578,2.109-2.971,0.481-4.127c-0.745-0.529-1.728-1.086-2.571-1.063c-2.281,0.055-4.567,0.272-6.811,0.711 c-1.451,0.281-2.766,0.543-4.188,0.006c0.201-0.535,0.228-0.807,0.351-0.863c0.672-0.33,1.35-0.678,2.063-0.893 c5.404-1.625,10.457-3.885,14.438-8.042c0.447-0.464,0.604-1.206,0.893-1.814c-2.18-1.332-4.037-0.674-5.852-0.125 c-3.493,1.063-6.959,2.23-10.449,3.298c-4.803,1.464-9.7,2.425-14.746,2.431c-0.826,0.005-1.999,0.253-2.089-1.411 c2.063-0.899,4.202-1.733,6.255-2.749c2.777-1.372,5.449-2.957,6.699-6.033c0.604-1.479,0.664-2.931-0.715-4.167 c-4.141,1.986-8.004,4.043-12.035,5.735c-4.023,1.692-8.162,3.185-13.571,3.213c1.425-1.036,2.119-1.628,2.89-2.077 c3.16-1.827,6.431-3.457,9.492-5.439c4.097-2.658,6.618-6.408,6.703-11.462c0.021-1.109-0.057-2.376-1.93-2.712 c-0.643,0.984-1.237,2.189-2.104,3.146c-1.797,1.985-3.48,4.233-5.682,5.657c-4.515,2.922-9.327,5.355-14.604,6.74 c-5.99,1.572-10.938,0.165-15.043-4.802c1.043-4.339,1.938-8.661,3.127-12.903c2.533-9.07,4.408-18.291,7.615-27.211 c2.373-6.624,4.955-13.358,5.311-20.584c0.02-0.705,0.523-1.389,0.846-2.073c0.633-1.39,1.414-2.73,1.885-4.168 c1.142-3.467,2.09-6.994,3.197-10.469c5.984-18.871,12.021-37.727,20.374-55.733c0.396-0.867,0.817-1.759,1.017-2.684 c0.175-0.853,0.039-1.772,0.039-2.605c0.398-0.104,0.592-0.22,0.744-0.177c0.719,0.214,1.438,0.458,2.154,0.711 c5.695,2.013,11.561,3.151,17.582,2.36c4.176-0.543,8.41-1.234,12.361-2.596c4.254-1.469,8.514-2.321,12.936-2.669 c2.115-0.169,4.219-0.431,6.318-0.69c10.291-1.283,16.77-7.04,19.736-16.883c0.055-0.183,0.082-0.375,0.141-0.558 c3.287-10.628,2.668-21.341,0.102-31.915c-2.846-11.685-9.57-20.877-19.605-27.532c-9.975-6.609-21.092-10.125-32.842-11.709 c-5.52-0.745-11.106-1.05-16.645-1.683c-10.982-1.252-21.936-0.779-32.732,1.332c-10.748,2.098-21.291,5.102-31.641,8.792 c-4.725,1.686-9.413,3.323-13.604,6.166c-0.902,0.617-1.984,0.98-2.912,1.43c-2.402-2.41-4.789-4.389-6.668-6.769 c-5.801-7.332-13.888-10.89-22.43-13.306c-9.409-2.669-19.088-2.299-28.531,0.077c-16.296,4.104-29.978,12.78-41.271,25.116 c-4.734,5.17-7.977,11.267-9.284,18.297c-1.9,10.273,2.574,20.99,11.465,26.375c13.116,7.94,26.908,9.828,41.416,4.061 c0.849-0.336,1.719-0.962,2.675,0.239c-0.144,0.61-0.297,1.334-0.489,2.055c-3.249,12.455-6.715,24.863-9.708,37.381 c-4.019,16.825-7.83,33.698-11.401,50.624c-2.345,11.098-4.198,22.303-6.08,33.493c-1.512,8.909-2.684,17.869-4.083,26.796 c-0.461,2.938-2.494,8.181,0.452,9.622c0.322,0.16,3.75,0.083,3.201-1.729c-2.594,1.096-3.678-1.269-4.622-1.515 c-3.298,0.13-5.82,0.589-8.239,0.269c-10.851-1.448-21.699-3.051-32.521-4.758c-2.432-0.385-4.75-1.439-7.135-2.16 c-1.277-0.384-2.544-0.849-3.852-1.053c-1.447-0.231-2.357,1.176-1.993,2.697c0.336,1.432,1.212,2.455,2.442,3.044 c1.909,0.907,3.864,1.759,5.883,2.337c3.512,0.998,7.088,1.723,10.618,2.66c0.923,0.248,1.71,0.885,1.026,2.299 c-1.026,0.055-2.162,0.174-3.299,0.172c-4.422-0.019-8.85-0.105-13.278-0.105c-1.332,0-2.693,0.089-4.007,0.331 c-1.225,0.224-2.102,1.148-2.205,2.37c-0.099,1.225,0.653,2.195,1.784,2.724c0.513,0.239,1.117,0.266,1.673,0.419 c0.748,0.204,1.503,0.423,1.228,1.709c-1.681,0.303-3.441,0.614-5.042,0.898c-0.699,1.995-0.187,3.587,0.972,4.562 C115.859,252.083,117.424,252.582,118.864,252.918z M296.688,249.009c-2.082-0.873-2.511-2.647-3.268-4.696 C296.755,244.963,295.734,247.52,296.688,249.009z M289.563,285.391c-0.043-0.291-0.088-0.58-0.131-0.867 c0.121,0.063,0.359,0.162,0.354,0.188C289.719,284.938,289.639,285.164,289.563,285.391z"></path> <path d="M266.357,462.104c-2.252,2.628-4.379,5.065-6.463,7.541c-10.429,12.41-23.694,20.013-39.5,23.215 c-3.763,0.761-7.632,1.088-11.323-0.688c-5.44-2.62-10.528-5.879-14.08-10.771c-5.305-7.317-10.136-14.97-12.848-23.736 c-0.91-2.938-1.931-5.841-3.109-8.673c-2.235-5.341-4.056-10.811-5.269-16.461c-1.691-7.897-3.313-15.813-4.896-23.729 c-1.398-6.996-2.101-14.052-2.175-21.209c-0.095-8.461,2.631-41.226,2.246-49.682c-0.146-3.278-1.083,0.204-4.804,0.854 c-0.977,3.48-2.895,27.438-2.804,31.069c-0.406,8.584-0.625,17.794-0.351,26.634c0.043,1.344,0.067,2.703,0.293,4.021 c1.411,8.146,2.813,16.301,4.337,24.424c1.43,7.564,3.506,14.974,6.133,22.218c1.315,3.613,2.657,7.21,3.988,10.818 c4.697,12.734,10.394,24.856,21.158,33.792c0.254,0.211,2.568,2.006,2.688,2.091c3.388,2.449,5.732,3.886,10.665,5.669 c0,0,6.025,2.517,24.658-3.757c2.999-1.489,5.899-2.938,8.814-4.373c7.873-3.902,14.658-9.146,20.069-16.116 c2.149-2.784,3.728-5.843,4.36-9.312C268.445,464.383,268.063,462.998,266.357,462.104z"></path> </g> </g> <line fill="none" stroke="#000000" stroke-width="5" stroke-miterlimit="10" x1="158.598" y1="262.448" x2="160.182" y2="251.893"></line> </svg> 